<svg width="93" height="38" viewBox="0 0 93 38" fill="none" xmlns="http://www.w3.org/2000/svg">
<path d="M6.41198 34H8.09198V28.552L10.348 34H11.62L13.864 28.552V34H15.544V25.624H13.648L10.984 31.852L8.31998 25.624H6.41198V34ZM19.353 31.084V34H21.033V31.084L23.865 25.624H21.993L20.205 29.452L18.405 25.624H16.509L19.353 31.084ZM33.3812 34H35.1572L32.1452 25.612H30.1892L27.1772 34H28.9412L29.4932 32.404H32.8292L33.3812 34ZM32.3732 31.06H29.9492L31.1612 27.556L32.3732 31.06ZM35.8751 29.8C35.8751 32.308 37.7111 34.072 40.1231 34.072C41.9831 34.072 43.4951 33.088 44.0591 31.36H42.1271C41.7311 32.176 41.0111 32.572 40.1111 32.572C38.6471 32.572 37.6031 31.492 37.6031 29.8C37.6031 28.096 38.6471 27.028 40.1111 27.028C41.0111 27.028 41.7311 27.424 42.1271 28.228H44.0591C43.4951 26.512 41.9831 25.516 40.1231 25.516C37.7111 25.516 35.8751 27.292 35.8751 29.8ZM45.086 29.8C45.086 32.308 46.922 34.072 49.334 34.072C51.194 34.072 52.706 33.088 53.27 31.36H51.338C50.942 32.176 50.222 32.572 49.322 32.572C47.858 32.572 46.814 31.492 46.814 29.8C46.814 28.096 47.858 27.028 49.322 27.028C50.222 27.028 50.942 27.424 51.338 28.228H53.27C52.706 26.512 51.194 25.516 49.334 25.516C46.922 25.516 45.086 27.292 45.086 29.8ZM62.877 29.788C62.877 27.28 60.981 25.504 58.593 25.504C56.229 25.504 54.297 27.28 54.297 29.788C54.297 32.308 56.229 34.084 58.593 34.084C60.969 34.084 62.877 32.308 62.877 29.788ZM56.025 29.788C56.025 28.084 57.069 27.016 58.593 27.016C60.105 27.016 61.149 28.084 61.149 29.788C61.149 31.492 60.105 32.584 58.593 32.584C57.069 32.584 56.025 31.492 56.025 29.788ZM64.1028 30.796C64.1028 33.004 65.6148 34.084 67.4508 34.084C69.2868 34.084 70.8708 33.004 70.8708 30.796V25.624H69.1788V30.808C69.1788 31.96 68.5548 32.56 67.4748 32.56C66.4068 32.56 65.7828 31.96 65.7828 30.808V25.624H64.1028V30.796ZM77.978 25.612V31.372L74.174 25.612H72.494V34H74.174V28.252L77.978 34H79.658V25.612H77.978ZM80.8742 26.98H83.1062V34H84.7862V26.98H87.0182V25.624H80.8742V26.98Z" fill="#4F4F4F"/>
<path d="M46.5202 9.36585C49.0958 9.36585 51.2031 7.25854 51.2031 4.68293C51.2031 2.10732 49.0958 0 46.5202 0C43.9446 0 41.8373 2.0878 41.8373 4.68293C41.8373 7.27805 43.9446 9.36585 46.5202 9.36585ZM46.5202 1.07317C48.5105 1.07317 50.13 2.69268 50.13 4.68293C50.13 6.67317 48.5105 8.29268 46.5202 8.29268C44.53 8.29268 42.9105 6.67317 42.9105 4.68293C42.9105 2.69268 44.53 1.07317 46.5202 1.07317Z" fill="#4F4F4F"/>
<path d="M55.8666 15.0634C53.291 12.7805 49.974 11.5122 46.5203 11.5122C43.0666 11.5122 39.7496 12.7805 37.174 15.0634C36.9593 15.2585 36.9398 15.5903 37.1349 15.8244C37.3301 16.039 37.6618 16.0585 37.8959 15.8634C40.2569 13.7561 43.3398 12.5854 46.5203 12.5854C49.7008 12.5854 52.7837 13.7561 55.1642 15.8634C55.2618 15.961 55.3983 16 55.5154 16C55.6715 16 55.8081 15.9415 55.9252 15.8244C56.1203 15.6098 56.1008 15.2585 55.8666 15.0634Z" fill="#4F4F4F"/>
</svg>
