<svg width="32" height="38" viewBox="0 0 32 38" fill="none" xmlns="http://www.w3.org/2000/svg">
<path d="M5.28503 25.624V34H9.72503V32.668H6.96503V25.624H5.28503ZM10.7928 34H12.4728V25.624H10.7928V34ZM19.9887 31.576C19.9887 28.624 15.6927 29.56 15.6927 27.88C15.6927 27.196 16.1847 26.872 16.8447 26.896C17.5647 26.908 18.0087 27.34 18.0447 27.892H19.8927C19.7847 26.38 18.6087 25.504 16.8927 25.504C15.1647 25.504 13.9407 26.416 13.9407 27.928C13.9287 30.964 18.2487 29.872 18.2487 31.684C18.2487 32.284 17.7807 32.704 16.9887 32.704C16.2087 32.704 15.7647 32.26 15.7167 31.588H13.9167C13.9407 33.172 15.2847 34.084 17.0247 34.084C18.9327 34.084 19.9887 32.896 19.9887 31.576ZM21.0012 26.98H23.2332V34H24.9132V26.98H27.1452V25.624H21.0012V26.98Z" fill="#4F4F4F"/>
<path d="M11.0999 16C10.9518 16 10.8038 15.9788 10.6769 15.9154C10.275 15.725 10 15.3231 10 14.8366V1.12106C10 0.507649 10.4865 0 11.0999 0H21.3798C21.9721 0 22.4797 0.507649 22.4797 1.12106V14.8155C22.522 15.2385 22.3105 15.6404 21.9509 15.8519C21.5702 16.0635 21.0837 16.0212 20.7241 15.7462L20.6818 15.7039L16.261 11.685L11.8402 15.7039C11.6287 15.8942 11.3749 16 11.0999 16ZM11.1634 1.14221V14.7309L15.5418 10.7543C15.9649 10.4159 16.5571 10.4159 16.9802 10.7543L17.0013 10.7754L21.3163 14.6886V1.14221H11.1634Z" fill="#4F4F4F"/>
</svg>


